<svg version="1.1" id="Layer_1" xmlns="http://www.w3.org/2000/svg" xmlns:xlink="http://www.w3.org/1999/xlink" x="0px" y="0px"
	 width="100%" viewBox="0 0 994 115" enable-background="new 0 0 994 115" xml:space="preserve">
<path fill="#013F8B" opacity="1.000000" stroke="none" 
	d="
M706.000000,116.000000 
	C471.000000,116.000000 236.000000,116.000000 1.000000,116.000000 
	C1.000000,112.959877 1.000000,109.961784 1.350843,106.494095 
	C11.491981,99.410439 21.282276,92.796371 31.417286,86.106430 
	C42.126724,80.024628 52.238831,73.518974 62.912151,68.123528 
	C81.439857,58.757610 100.314598,50.078201 119.421555,41.089714 
	C128.536667,37.683762 137.274033,34.299019 146.299820,30.934122 
	C147.075851,30.688410 147.563446,30.422846 148.438232,30.151730 
	C151.662369,29.239765 154.501434,28.339827 157.335983,27.425940 
	C191.243698,16.493778 225.771133,8.159043 261.284760,4.940623 
	C279.775116,3.264934 298.427795,3.379918 317.455048,2.790635 
	C348.813141,4.172187 379.066467,9.492274 408.882782,17.575296 
	C448.304871,28.262390 485.933105,43.948799 523.994263,58.475468 
	C549.138611,68.072205 574.657227,76.688072 600.354431,85.911636 
	C635.032471,96.575317 669.950439,103.654045 705.998779,104.596420 
	C705.999329,108.698570 705.999634,112.349289 706.000000,116.000000 
z"/>
<path fill="#FEFEFE" opacity="1.000000" stroke="none" 
	d="
M705.998657,104.144989 
	C669.950439,103.654045 635.032471,96.575317 600.350220,85.529213 
	C599.876892,80.666435 597.787231,78.656494 593.358826,78.924950 
	C591.947266,79.010529 590.468445,78.380684 589.054993,77.961472 
	C585.800171,76.996147 582.609741,75.775475 579.312805,75.000404 
	C575.652283,74.139862 573.070129,72.581184 571.878052,68.649429 
	C571.287842,66.702736 569.545776,64.849426 567.861755,63.557552 
	C565.929749,62.075428 563.431641,61.356300 561.271118,60.142647 
	C550.059692,53.844631 540.968323,44.373100 529.096436,38.971466 
	C523.757507,36.542297 519.037720,32.784737 513.905762,29.860334 
	C507.362946,26.131975 500.694244,22.623871 494.066071,19.046307 
	C490.268219,16.996420 491.068115,14.117023 493.133789,11.625047 
	C494.554962,9.910582 497.018951,9.099460 498.641113,7.502834 
	C500.632080,5.543160 502.231384,3.185573 504.000000,1.000001 
	C667.666687,1.000000 831.333374,1.000000 995.000000,1.000000 
	C995.000000,21.761978 995.000000,42.412331 994.537231,63.481533 
	C990.245544,64.055603 986.409363,64.109207 982.588806,64.381775 
	C944.817810,67.076500 907.602722,73.641685 870.420593,80.469078 
	C815.919800,90.476540 761.711243,102.542496 705.998657,104.144989 
z"/>
<path fill="#01408F" opacity="1.000000" stroke="none" 
	d="
M705.998779,104.596420 
	C761.711243,102.542496 815.919800,90.476540 870.420593,80.469078 
	C907.602722,73.641685 944.817810,67.076500 982.588806,64.381775 
	C986.409363,64.109207 990.245544,64.055603 994.537231,63.950191 
	C995.000000,81.311073 995.000000,98.622139 995.000000,116.000000 
	C898.979126,116.000000 802.958191,116.000000 706.468628,116.000000 
	C705.999634,112.349289 705.999329,108.698570 705.998779,104.596420 
z"/>
<path fill="#F6F6F7" opacity="1.000000" stroke="none" 
	d="
M119.043816,41.110916 
	C100.314598,50.078201 81.439857,58.757610 62.912151,68.123528 
	C52.238831,73.518974 42.126724,80.024628 31.249504,85.710701 
	C30.490913,83.092125 30.035290,80.793808 30.030811,78.494629 
	C29.980499,52.663166 29.999575,26.831564 30.000000,1.000000 
	C65.354225,1.000000 100.708458,1.000000 136.468048,1.341628 
	C134.629593,4.772896 132.435806,7.901442 130.094070,10.915017 
	C129.689774,11.435316 128.576187,11.818656 127.928879,11.668309 
	C123.898293,10.732140 124.059853,13.431973 123.655876,15.935053 
	C122.142731,15.428943 120.974007,14.985290 119.043816,14.252577 
	C119.043816,23.625685 119.043816,32.368301 119.043816,41.110916 
z"/>
<path fill="#F9FAFA" opacity="1.000000" stroke="none" 
	d="
M503.531342,1.000001 
	C502.231384,3.185573 500.632080,5.543160 498.641113,7.502834 
	C497.018951,9.099460 494.554962,9.910582 493.133789,11.625047 
	C491.068115,14.117023 490.268219,16.996420 494.066071,19.046307 
	C500.694244,22.623871 507.362946,26.131975 513.905762,29.860334 
	C519.037720,32.784737 523.757507,36.542297 529.096436,38.971466 
	C540.968323,44.373100 550.059692,53.844631 561.271118,60.142647 
	C563.431641,61.356300 565.929749,62.075428 567.861755,63.557552 
	C569.545776,64.849426 571.287842,66.702736 571.878052,68.649429 
	C573.070129,72.581184 575.652283,74.139862 579.312805,75.000404 
	C582.609741,75.775475 585.800171,76.996147 589.054993,77.961472 
	C590.468445,78.380684 591.947266,79.010529 593.358826,78.924950 
	C597.787231,78.656494 599.876892,80.666435 600.004150,85.360672 
	C574.657227,76.688072 549.138611,68.072205 523.994263,58.475468 
	C485.933105,43.948799 448.304871,28.262390 408.882782,17.575296 
	C379.066467,9.492274 348.813141,4.172187 317.456116,2.509622 
	C317.006226,1.749347 317.003113,1.374673 317.000000,1.000000 
	C363.354218,1.000000 409.708466,1.000000 456.597748,1.340645 
	C460.989197,4.657526 464.601837,8.050897 468.772919,10.488619 
	C472.675201,12.769228 475.837524,10.481799 475.988007,5.952557 
	C476.042786,4.303391 475.998871,2.650947 476.000000,1.000000 
	C485.020905,1.000000 494.041779,1.000000 503.531342,1.000001 
z"/>
<path fill="#EEEEEE" opacity="1.000000" stroke="none" 
	d="
M29.531342,1.000000 
	C29.999575,26.831564 29.980499,52.663166 30.030811,78.494629 
	C30.035290,80.793808 30.490913,83.092125 30.904789,85.786575 
	C21.282276,92.796371 11.491981,99.410439 1.350843,106.012253 
	C1.000000,71.114647 1.000000,36.229290 1.000000,1.000000 
	C10.351418,1.000000 19.707050,1.000000 29.531342,1.000000 
z"/>
<path fill="#F7F7F8" opacity="1.000000" stroke="none" 
	d="
M316.531342,1.000000 
	C317.003113,1.374673 317.006226,1.749347 317.008240,2.405034 
	C298.427795,3.379918 279.775116,3.264934 261.284760,4.940623 
	C225.771133,8.159043 191.243698,16.493778 157.335983,27.425940 
	C154.501434,28.339827 151.662369,29.239765 148.343491,29.817680 
	C146.905029,28.993948 145.948471,28.498714 144.728439,27.858582 
	C143.643295,27.142508 142.821655,26.571331 141.924133,25.694275 
	C140.564957,24.926544 139.281647,24.464691 137.644318,23.943363 
	C132.860306,21.255095 128.430313,18.626303 124.000305,15.997511 
	C124.059853,13.431973 123.898293,10.732140 127.928879,11.668309 
	C128.576187,11.818656 129.689774,11.435316 130.094070,10.915017 
	C132.435806,7.901442 134.629593,4.772896 136.936707,1.341628 
	C196.687561,1.000000 256.375122,1.000000 316.531342,1.000000 
z"/>
<path fill="#F3F3F3" opacity="1.000000" stroke="none" 
	d="
M475.531738,1.000000 
	C475.998871,2.650947 476.042786,4.303391 475.988007,5.952557 
	C475.837524,10.481799 472.675201,12.769228 468.772919,10.488619 
	C464.601837,8.050897 460.989197,4.657526 457.066406,1.340645 
	C463.021149,1.000000 469.042297,1.000000 475.531738,1.000000 
z"/>
<path fill="#E9EAEB" opacity="1.000000" stroke="none" 
	d="
M142.000000,26.000153 
	C142.821655,26.571331 143.643295,27.142508 144.860168,28.140079 
	C145.507401,29.349073 145.759399,30.131674 146.011398,30.914272 
	C137.274033,34.299019 128.536667,37.683762 119.421555,41.089714 
	C119.043816,32.368301 119.043816,23.625685 119.043816,14.252577 
	C120.974007,14.985290 122.142731,15.428943 123.655876,15.935053 
	C128.430313,18.626303 132.860306,21.255095 137.864487,24.182796 
	C139.625778,24.987854 140.812881,25.494003 142.000000,26.000153 
z"/>
<path fill="#F6F6F7" opacity="1.000000" stroke="none" 
	d="
M146.299820,30.934124 
	C145.759399,30.131674 145.507401,29.349073 145.123657,28.284977 
	C145.948471,28.498714 146.905029,28.993948 147.956314,29.823231 
	C147.563446,30.422846 147.075851,30.688410 146.299820,30.934124 
z"/>
<path fill="#F6F6F7" opacity="1.000000" stroke="none" 
	d="
M141.924133,25.694275 
	C140.812881,25.494003 139.625778,24.987854 138.218506,24.242273 
	C139.281647,24.464691 140.564957,24.926544 141.924133,25.694275 
z"/>
</svg>